<mxfile host="app.diagrams.net" modified="2022-06-06T15:15:18.125Z" agent="5.0 (Windows NT 10.0; Win64; x64) AppleWebKit/537.36 (KHTML, like Gecko) Chrome/102.0.0.0 Safari/537.36" etag="BRam4SO96lWPTK6iwPQZ" version="19.0.1" type="github">
  <diagram name="Page-1" id="e7e014a7-5840-1c2e-5031-d8a46d1fe8dd">
    <mxGraphModel dx="1481" dy="759" grid="1" gridSize="10" guides="1" tooltips="1" connect="1" arrows="1" fold="1" page="1" pageScale="1" pageWidth="1169" pageHeight="826" background="none" math="0" shadow="0">
      <root>
        <mxCell id="0" />
        <mxCell id="1" parent="0" />
        <mxCell id="RC-gcPLnoU7JGPPzsrvk-44" value="创建socket()" style="" vertex="1" parent="1">
          <mxGeometry x="330" y="200" width="110" height="50" as="geometry" />
        </mxCell>
        <mxCell id="RC-gcPLnoU7JGPPzsrvk-45" value="" style="ellipse;html=1;shape=startState;fillColor=#000000;strokeColor=#ff0000;" vertex="1" parent="1">
          <mxGeometry x="370" y="130" width="30" height="30" as="geometry" />
        </mxCell>
        <mxCell id="RC-gcPLnoU7JGPPzsrvk-46" value="" style="edgeStyle=orthogonalEdgeStyle;html=1;verticalAlign=bottom;endArrow=open;endSize=8;strokeColor=#ff0000;rounded=0;entryX=0.5;entryY=0;entryDx=0;entryDy=0;entryPerimeter=0;" edge="1" source="RC-gcPLnoU7JGPPzsrvk-45" parent="1" target="RC-gcPLnoU7JGPPzsrvk-44">
          <mxGeometry relative="1" as="geometry">
            <mxPoint x="385" y="190" as="targetPoint" />
          </mxGeometry>
        </mxCell>
        <mxCell id="RC-gcPLnoU7JGPPzsrvk-47" value="bing()绑定端口号等" style="" vertex="1" parent="1">
          <mxGeometry x="330" y="300" width="110" height="50" as="geometry" />
        </mxCell>
        <mxCell id="RC-gcPLnoU7JGPPzsrvk-49" value="" style="edgeStyle=orthogonalEdgeStyle;html=1;verticalAlign=bottom;endArrow=open;endSize=8;strokeColor=#ff0000;rounded=0;entryX=0.489;entryY=0.012;entryDx=0;entryDy=0;entryPerimeter=0;" edge="1" parent="1" target="RC-gcPLnoU7JGPPzsrvk-47">
          <mxGeometry relative="1" as="geometry">
            <mxPoint x="384.5" y="300" as="targetPoint" />
            <mxPoint x="384.5" y="250" as="sourcePoint" />
          </mxGeometry>
        </mxCell>
        <mxCell id="34" value="" style="whiteSpace=wrap;strokeColor=#FF0000;fillColor=#FF0000;rotation=90;" parent="1" vertex="1">
          <mxGeometry x="382.5" y="390" width="5" height="200" as="geometry" />
        </mxCell>
        <mxCell id="RC-gcPLnoU7JGPPzsrvk-50" value="llisten()" style="" vertex="1" parent="1">
          <mxGeometry x="330" y="400" width="110" height="50" as="geometry" />
        </mxCell>
        <mxCell id="RC-gcPLnoU7JGPPzsrvk-53" value="" style="edgeStyle=orthogonalEdgeStyle;html=1;verticalAlign=bottom;endArrow=open;endSize=8;strokeColor=#ff0000;rounded=0;entryX=0.5;entryY=0;entryDx=0;entryDy=0;entryPerimeter=0;" edge="1" parent="1">
          <mxGeometry relative="1" as="geometry">
            <mxPoint x="384.5" y="400" as="targetPoint" />
            <mxPoint x="384.5" y="350" as="sourcePoint" />
          </mxGeometry>
        </mxCell>
        <mxCell id="RC-gcPLnoU7JGPPzsrvk-55" value="" style="edgeStyle=orthogonalEdgeStyle;html=1;verticalAlign=bottom;endArrow=open;endSize=8;strokeColor=#ff0000;rounded=0;entryX=0.5;entryY=0;entryDx=0;entryDy=0;entryPerimeter=0;" edge="1" parent="1">
          <mxGeometry relative="1" as="geometry">
            <mxPoint x="384.5" y="490" as="targetPoint" />
            <mxPoint x="384.5" y="450" as="sourcePoint" />
          </mxGeometry>
        </mxCell>
        <mxCell id="RC-gcPLnoU7JGPPzsrvk-57" value="" style="endArrow=open;endFill=1;endSize=12;html=1;rounded=0;exitX=1.18;exitY=0.55;exitDx=0;exitDy=0;exitPerimeter=0;strokeColor=#FF3333;entryX=0.471;entryY=0.036;entryDx=0;entryDy=0;entryPerimeter=0;" edge="1" parent="1" source="34" target="RC-gcPLnoU7JGPPzsrvk-58">
          <mxGeometry width="160" relative="1" as="geometry">
            <mxPoint x="100" y="690" as="sourcePoint" />
            <mxPoint x="270" y="540" as="targetPoint" />
          </mxGeometry>
        </mxCell>
        <mxCell id="RC-gcPLnoU7JGPPzsrvk-58" value="接收连接 accept()" style="" vertex="1" parent="1">
          <mxGeometry x="200" y="550" width="110" height="50" as="geometry" />
        </mxCell>
        <mxCell id="RC-gcPLnoU7JGPPzsrvk-59" value="接受消息 recv()" style="" vertex="1" parent="1">
          <mxGeometry x="440" y="550" width="110" height="50" as="geometry" />
        </mxCell>
        <mxCell id="RC-gcPLnoU7JGPPzsrvk-60" value="" style="endArrow=open;endFill=1;endSize=12;html=1;rounded=0;exitX=0.5;exitY=0.475;exitDx=0;exitDy=0;exitPerimeter=0;strokeColor=#FF3333;entryX=0.518;entryY=-0.06;entryDx=0;entryDy=0;entryPerimeter=0;" edge="1" parent="1" source="34" target="RC-gcPLnoU7JGPPzsrvk-59">
          <mxGeometry width="160" relative="1" as="geometry">
            <mxPoint x="385" y="503.4000000000001" as="sourcePoint" />
            <mxPoint x="261.80999999999995" y="561.8" as="targetPoint" />
          </mxGeometry>
        </mxCell>
        <mxCell id="RC-gcPLnoU7JGPPzsrvk-61" value="保存连接到map" style="" vertex="1" parent="1">
          <mxGeometry x="200" y="640" width="110" height="50" as="geometry" />
        </mxCell>
        <mxCell id="RC-gcPLnoU7JGPPzsrvk-62" value="" style="edgeStyle=orthogonalEdgeStyle;html=1;verticalAlign=bottom;endArrow=open;endSize=8;strokeColor=#ff0000;rounded=0;entryX=0.5;entryY=0;entryDx=0;entryDy=0;entryPerimeter=0;" edge="1" parent="1">
          <mxGeometry relative="1" as="geometry">
            <mxPoint x="254.5" y="640" as="targetPoint" />
            <mxPoint x="254.5" y="600" as="sourcePoint" />
          </mxGeometry>
        </mxCell>
        <mxCell id="RC-gcPLnoU7JGPPzsrvk-63" value="" style="edgeStyle=orthogonalEdgeStyle;html=1;verticalAlign=bottom;endArrow=open;endSize=8;strokeColor=#ff0000;rounded=0;exitX=0;exitY=0.6;exitDx=0;exitDy=0;exitPerimeter=0;entryX=-0.009;entryY=0.468;entryDx=0;entryDy=0;entryPerimeter=0;" edge="1" parent="1" source="RC-gcPLnoU7JGPPzsrvk-61" target="RC-gcPLnoU7JGPPzsrvk-58">
          <mxGeometry relative="1" as="geometry">
            <mxPoint x="170" y="570" as="targetPoint" />
            <mxPoint x="152.5" y="780" as="sourcePoint" />
            <Array as="points">
              <mxPoint x="160" y="670" />
              <mxPoint x="160" y="573" />
            </Array>
          </mxGeometry>
        </mxCell>
        <mxCell id="RC-gcPLnoU7JGPPzsrvk-67" value="广播消息给map中的客户端" style="" vertex="1" parent="1">
          <mxGeometry x="612" y="642" width="170" height="50" as="geometry" />
        </mxCell>
        <mxCell id="RC-gcPLnoU7JGPPzsrvk-70" value="" style="edgeStyle=orthogonalEdgeStyle;html=1;verticalAlign=bottom;endArrow=open;endSize=8;strokeColor=#ff0000;rounded=0;" edge="1" parent="1">
          <mxGeometry relative="1" as="geometry">
            <mxPoint x="490" y="630" as="targetPoint" />
            <mxPoint x="490" y="600" as="sourcePoint" />
          </mxGeometry>
        </mxCell>
        <mxCell id="RC-gcPLnoU7JGPPzsrvk-73" value="" style="edgeStyle=orthogonalEdgeStyle;html=1;verticalAlign=bottom;endArrow=open;endSize=8;strokeColor=#ff0000;rounded=0;entryX=1;entryY=0.6;entryDx=0;entryDy=0;entryPerimeter=0;exitX=0.531;exitY=0.001;exitDx=0;exitDy=0;exitPerimeter=0;" edge="1" parent="1" source="RC-gcPLnoU7JGPPzsrvk-67" target="RC-gcPLnoU7JGPPzsrvk-59">
          <mxGeometry relative="1" as="geometry">
            <mxPoint x="580" y="570" as="targetPoint" />
            <mxPoint x="580" y="530" as="sourcePoint" />
          </mxGeometry>
        </mxCell>
        <mxCell id="RC-gcPLnoU7JGPPzsrvk-78" value="" style="edgeStyle=orthogonalEdgeStyle;rounded=0;orthogonalLoop=1;jettySize=auto;html=1;strokeColor=#FF3333;" edge="1" parent="1" source="RC-gcPLnoU7JGPPzsrvk-74">
          <mxGeometry relative="1" as="geometry">
            <mxPoint x="610" y="666" as="targetPoint" />
          </mxGeometry>
        </mxCell>
        <mxCell id="RC-gcPLnoU7JGPPzsrvk-74" value="消息长度&amp;gt;=0" style="strokeWidth=1;html=1;shape=mxgraph.flowchart.decision;whiteSpace=wrap;" vertex="1" parent="1">
          <mxGeometry x="439" y="631" width="102" height="70" as="geometry" />
        </mxCell>
        <mxCell id="RC-gcPLnoU7JGPPzsrvk-85" value="" style="edgeStyle=orthogonalEdgeStyle;rounded=0;orthogonalLoop=1;jettySize=auto;html=1;strokeColor=#FF3333;" edge="1" parent="1" source="RC-gcPLnoU7JGPPzsrvk-79" target="RC-gcPLnoU7JGPPzsrvk-83">
          <mxGeometry relative="1" as="geometry" />
        </mxCell>
        <mxCell id="RC-gcPLnoU7JGPPzsrvk-79" value="断开连接" style="whiteSpace=wrap;html=1;strokeWidth=1;" vertex="1" parent="1">
          <mxGeometry x="435" y="740" width="115" height="30" as="geometry" />
        </mxCell>
        <mxCell id="RC-gcPLnoU7JGPPzsrvk-82" value="" style="edgeStyle=orthogonalEdgeStyle;html=1;verticalAlign=bottom;endArrow=open;endSize=8;strokeColor=#ff0000;rounded=0;entryX=0.5;entryY=0;entryDx=0;entryDy=0;entryPerimeter=0;" edge="1" parent="1">
          <mxGeometry relative="1" as="geometry">
            <mxPoint x="489.40999999999997" y="740" as="targetPoint" />
            <mxPoint x="489.40999999999997" y="700" as="sourcePoint" />
          </mxGeometry>
        </mxCell>
        <mxCell id="RC-gcPLnoU7JGPPzsrvk-83" value="" style="ellipse;html=1;shape=endState;fillColor=#000000;strokeColor=#ff0000;" vertex="1" parent="1">
          <mxGeometry x="477" y="810" width="30" height="30" as="geometry" />
        </mxCell>
      </root>
    </mxGraphModel>
  </diagram>
</mxfile>
